<?xml version="1.0" standalone="no"?>
<!DOCTYPE svg PUBLIC "-//W3C//DTD SVG 20010904//EN"
 "http://www.w3.org/TR/2001/REC-SVG-20010904/DTD/svg10.dtd">
<svg version="1.0" xmlns="http://www.w3.org/2000/svg"
 width="720.000000pt" height="720.000000pt" viewBox="0 0 720.000000 720.000000"
 preserveAspectRatio="xMidYMid meet">
<metadata>
Created by potrace 1.11, written by Peter Selinger 2001-2013
</metadata>
<g transform="translate(0.000000,720.000000) scale(0.100000,-0.100000)"
fill="#000000" stroke="none">
<path d="M0 3600 l0 -3600 3600 0 3600 0 0 3600 0 3600 -3600 0 -3600 0 0
-3600z m4720 3343 c134 -37 260 -137 317 -254 35 -71 63 -172 63 -231 0 -29 3
-36 15 -32 23 9 20 -51 -3 -68 -11 -7 -22 -31 -26 -53 -18 -98 -96 -238 -186
-335 -49 -52 -48 -51 -54 -330 -6 -263 -18 -470 -28 -464 -4 3 -8 -3 -8 -13 0
-12 -3 -14 -8 -6 -5 8 -21 9 -52 3 -35 -7 -47 -6 -56 6 -14 18 -24 18 -24 0 0
-7 -7 -19 -15 -26 -8 -7 -15 -21 -15 -31 0 -13 -7 -19 -22 -19 -12 0 -30 -8
-40 -17 -16 -14 -21 -15 -27 -4 -6 10 -14 11 -26 3 -20 -11 -51 -4 -103 23
-26 14 -36 14 -48 4 -8 -7 -13 -17 -11 -23 5 -12 -66 -16 -78 -5 -3 4 -15 4
-26 2 -14 -4 -17 -8 -9 -13 10 -6 10 -15 -1 -39 -8 -17 -18 -31 -23 -31 -4 0
-6 -6 -3 -13 3 -7 -4 -24 -14 -38 -25 -32 -24 -40 4 -35 12 3 54 7 92 11 175
14 473 47 498 55 21 7 29 6 34 -5 3 -8 9 -12 14 -9 11 7 11 -7 0 -25 -5 -7
-14 -10 -20 -7 -6 4 -11 1 -11 -6 0 -10 -2 -10 -8 -1 -8 12 -125 11 -192 -2
-27 -5 -49 -7 -235 -25 -66 -7 -124 -17 -130 -22 -7 -7 10 -8 50 -5 73 6 265
24 395 37 52 5 96 7 98 5 10 -10 -12 -25 -36 -25 -19 0 -23 -3 -15 -11 8 -8
21 -8 48 1 20 7 38 10 39 8 2 -1 1 -36 -2 -76 -3 -48 -8 -72 -16 -69 -6 2 -10
17 -9 34 1 26 -2 30 -19 25 -11 -2 -24 -14 -28 -26 -6 -15 -9 -17 -9 -5 -1 9
-8 19 -16 23 -16 6 -17 -2 -20 -106 0 -26 2 -44 5 -39 9 13 39 21 45 11 4 -6
1 -10 -6 -10 -6 0 -20 -10 -31 -22 -16 -18 -17 -24 -6 -26 27 -5 68 16 62 33
-3 8 -1 15 5 15 6 0 11 -12 11 -27 0 -22 2 -25 11 -13 7 11 8 -2 5 -45 -9 -96
-11 -105 -18 -105 -11 0 -23 23 -20 40 1 8 -3 22 -8 30 -8 13 -11 13 -19 1 -5
-7 -14 -10 -20 -7 -6 4 -11 2 -11 -3 0 -6 7 -11 15 -11 16 0 31 -42 21 -59 -4
-5 -19 -16 -35 -24 -35 -18 -56 -5 -40 25 9 16 6 18 -23 16 -18 -1 -49 -12
-68 -25 -19 -13 -40 -23 -47 -23 -6 0 -21 -12 -33 -27 -12 -16 -27 -28 -33
-28 -5 0 -12 -6 -15 -13 -5 -16 41 -7 74 14 19 11 22 11 27 -5 3 -15 19 -20
72 -26 36 -4 69 -4 72 -1 3 3 14 1 25 -5 25 -14 48 5 48 38 0 20 4 24 20 20
18 -5 20 0 20 43 0 27 4 51 9 54 9 6 14 -11 27 -94 3 -25 10 -52 15 -61 5 -10
20 -88 33 -175 27 -180 106 -611 132 -724 14 -60 18 -133 20 -365 2 -159 3
-318 4 -352 0 -35 4 -63 9 -63 15 0 20 -38 5 -44 -16 -6 -20 -86 -4 -86 6 0
10 9 10 20 0 11 4 20 9 20 17 0 20 -31 6 -63 -7 -17 -16 -40 -19 -51 -5 -13
-12 -17 -30 -12 -13 3 -62 9 -110 12 l-87 7 11 -28 c6 -15 8 -36 5 -46 -4 -12
-1 -19 7 -19 8 0 6 -4 -4 -11 -12 -6 -18 -22 -18 -44 0 -19 -5 -37 -10 -40 -8
-5 -7 -11 1 -21 7 -8 9 -27 5 -46 -4 -18 -8 -43 -9 -56 -1 -12 -10 -25 -19
-28 -14 -4 -18 -16 -18 -49 0 -25 -5 -46 -12 -49 -10 -3 -8 -9 5 -19 14 -12
15 -16 3 -20 -8 -3 -17 -21 -21 -39 -4 -18 -12 -39 -17 -45 -7 -8 -6 -23 1
-44 15 -43 14 -52 -4 -45 -8 3 -15 1 -15 -4 0 -6 7 -10 15 -10 10 0 15 -10 15
-29 0 -16 3 -37 7 -46 5 -14 2 -16 -15 -10 -13 4 -22 2 -22 -4 0 -6 7 -11 15
-11 18 0 20 -26 2 -33 -19 -7 -20 -66 -1 -94 11 -17 14 -36 10 -57 -4 -17 -8
-51 -10 -76 -9 -94 -29 -189 -39 -183 -6 3 -7 1 -3 -5 4 -6 13 -9 21 -5 11 4
13 1 9 -11 -3 -9 -10 -16 -15 -16 -5 0 -9 -8 -9 -18 0 -15 -31 -43 -52 -48 -5
-1 -10 -3 -13 -4 -3 -1 -11 -3 -17 -4 -7 0 -22 -18 -32 -40 -22 -44 -27 -39
-47 44 -7 30 -16 60 -20 65 -8 11 -25 114 -21 128 1 4 -6 3 -17 -3 -16 -8 -20
-6 -23 8 -7 34 3 61 21 54 14 -5 14 -4 -1 12 -10 9 -18 23 -18 30 0 19 25 37
42 31 10 -4 21 10 37 45 16 35 28 50 42 50 12 0 19 7 19 19 0 11 5 21 12 23 7
3 11 23 10 54 -1 27 5 62 13 77 8 17 12 40 8 57 -4 25 -2 30 13 30 17 0 17 1
-1 13 -10 8 -15 19 -11 25 10 16 26 15 26 -2 0 -7 9 -16 20 -19 24 -6 26 6 5
26 -9 10 -11 17 -4 19 7 2 7 12 1 28 -10 28 -10 156 1 166 11 11 8 59 -4 71
-7 7 -8 19 -4 30 12 27 6 52 -17 75 -20 20 -20 22 -3 34 16 12 16 16 2 51 -21
55 -21 130 1 136 9 3 -1 5 -23 6 -22 0 -72 -8 -110 -18 l-71 -18 -24 33 c-24
32 -40 43 -40 27 0 -5 11 -26 23 -48 22 -37 26 -40 65 -38 23 1 42 0 42 -1 0
-2 5 -28 10 -57 19 -95 40 -291 40 -371 0 -76 -1 -78 -29 -93 -17 -8 -36 -23
-43 -33 -7 -9 -28 -30 -46 -45 -19 -15 -31 -27 -28 -27 14 0 65 27 97 52 20
15 40 28 44 28 9 0 -1 -102 -18 -175 -24 -106 -63 -165 -108 -165 -34 0 -157
-56 -138 -62 9 -3 -3 -16 -31 -33 -74 -47 -29 -39 59 10 45 26 86 45 91 43 5
-2 -4 -23 -20 -48 -16 -25 -30 -49 -30 -55 0 -5 -11 -37 -25 -70 -13 -33 -25
-73 -25 -88 0 -25 -8 -32 -77 -63 -44 -20 -128 -46 -193 -60 -141 -30 -204
-50 -250 -81 -37 -25 -56 -29 -62 -13 -2 6 -20 1 -44 -10 -41 -20 -149 -31
-172 -16 -7 4 -12 16 -12 27 0 11 -11 52 -25 92 -20 56 -43 192 -45 260 0 4
-14 6 -32 5 -18 -1 -33 3 -36 10 -3 11 -32 18 -32 7 0 -15 25 -55 35 -55 17 0
40 -29 31 -38 -4 -4 -14 2 -22 12 -17 24 -25 18 -17 -12 4 -17 11 -21 24 -17
13 5 19 1 19 -10 0 -8 7 -26 16 -40 8 -13 14 -38 12 -56 l-3 -32 -23 46 c-25
50 -42 68 -42 43 0 -8 5 -18 10 -21 6 -3 10 -13 10 -22 0 -8 9 -27 20 -43 11
-15 21 -37 23 -47 1 -11 10 -32 20 -46 22 -34 10 -41 -56 -32 -81 10 -164 33
-262 71 -106 40 -103 38 -135 86 -14 21 -28 38 -32 38 -5 0 -8 5 -8 10 0 17
-39 54 -47 45 -5 -4 -2 -10 5 -12 6 -3 12 -10 12 -17 0 -7 11 -23 24 -35 29
-28 41 -68 25 -87 -17 -21 -39 -17 -61 11 -23 29 -47 33 -49 8 -1 -10 -3 -33
-5 -51 -1 -18 -7 -47 -13 -63 -6 -18 -7 -38 -2 -47 10 -17 3 -52 -10 -52 -5 0
-9 -13 -9 -29 0 -21 -6 -32 -20 -36 -28 -9 -40 2 -40 36 0 31 -8 36 -29 17
-11 -11 -15 -9 -25 6 -6 11 -18 27 -27 36 -10 10 -16 36 -17 69 -1 52 -10 78
-19 54 -9 -26 -21 -12 -28 33 -3 25 -17 66 -31 91 -16 31 -25 66 -26 104 -2
33 -6 59 -9 59 -6 0 -9 32 -11 98 -1 17 -5 32 -10 32 -5 0 -1 11 8 25 28 43
126 46 139 4 6 -19 44 -66 135 -167 25 -27 41 -38 46 -31 4 8 3 9 -4 5 -8 -5
-12 1 -12 16 0 38 -25 98 -54 131 -20 23 -26 37 -21 56 4 20 3 22 -5 11 -6
-10 -10 -11 -10 -3 0 7 -5 12 -11 10 -10 -2 -49 85 -49 111 0 20 17 14 23 -8
3 -11 10 -20 17 -20 6 0 9 4 5 10 -6 9 -7 157 -1 240 2 30 -3 55 -16 75 -10
17 -18 40 -18 52 0 11 -11 45 -25 75 -24 52 -34 128 -16 128 5 0 16 3 25 6 12
5 16 0 16 -19 0 -13 6 -30 14 -36 12 -10 15 -8 19 11 2 13 3 8 1 -11 -4 -38 9
-61 34 -61 8 0 24 -8 34 -17 19 -17 19 -16 13 12 -4 17 -9 37 -13 45 -3 8 -7
43 -7 77 -2 67 -44 245 -56 237 -4 -2 -10 -18 -14 -34 -4 -17 -11 -30 -17 -30
-9 0 -8 18 4 69 2 8 -3 16 -9 18 -9 3 -13 -6 -13 -26 0 -38 -14 -76 -40 -103
-11 -13 -18 -29 -15 -38 4 -8 9 -27 12 -41 5 -25 4 -26 -42 -22 -70 7 -79 1
-61 -41 12 -29 12 -36 0 -48 -12 -12 -13 -20 -3 -44 13 -29 14 -40 23 -189 3
-44 10 -102 16 -130 6 -27 11 -60 11 -73 -1 -12 5 -25 12 -28 42 -16 -18 -64
-79 -64 -26 0 -26 1 -20 45 5 29 4 45 -3 45 -6 0 -11 9 -11 20 0 11 -5 20 -11
20 -7 0 -9 10 -5 25 5 18 3 23 -8 19 -9 -3 -15 5 -19 26 -4 17 -20 51 -37 75
-16 24 -30 51 -30 60 0 8 -7 32 -15 51 -11 26 -12 46 -6 75 7 32 6 39 -6 39
-10 0 -13 6 -9 16 4 11 -1 18 -14 21 -15 4 -18 9 -10 18 6 7 12 26 15 43 l3
30 -61 6 c-34 3 -85 8 -113 12 l-52 6 -10 51 c-6 31 -6 59 -1 68 6 12 4 21 -8
30 -17 15 -43 69 -43 91 0 6 13 0 28 -15 33 -32 47 -35 32 -8 -16 32 -13 71 7
71 14 0 14 3 -5 15 -21 15 -21 17 -5 41 15 24 15 27 -6 54 -29 40 -28 62 3 54
32 -8 42 10 13 23 -20 9 -24 22 -35 118 -6 59 -18 130 -26 159 -50 177 -81
531 -64 731 5 55 24 163 43 240 18 77 45 209 59 293 27 162 41 205 58 181 7
-10 7 -7 3 9 -7 25 19 77 34 67 5 -2 16 -37 26 -77 23 -100 63 -236 80 -275
13 -30 19 -33 62 -35 27 0 55 -1 63 0 8 0 18 -5 22 -11 6 -9 8 -8 8 1 0 8 9
13 23 11 12 -1 29 1 37 4 8 3 29 8 45 11 17 3 71 12 120 21 50 9 105 19 123
22 32 5 46 23 18 23 -8 0 -17 4 -20 8 -3 5 19 8 48 7 51 -2 54 -1 71 32 36 66
46 74 215 162 132 68 192 82 405 92 148 7 210 6 280 -5 l90 -14 27 29 c15 16
36 29 45 29 15 0 15 2 -3 14 -14 10 -19 25 -19 49 1 28 -4 38 -22 48 -30 16
-29 28 2 55 30 25 153 47 277 48 43 1 78 4 78 7 0 6 128 26 236 35 77 7 105
17 89 33 -6 5 -32 6 -65 1 -57 -9 -98 -13 -290 -30 -63 -6 -122 -12 -130 -14
-8 -3 -51 -7 -95 -11 -44 -3 -98 -8 -120 -11 -22 -2 -110 -9 -195 -15 -85 -6
-168 -12 -185 -14 -189 -16 -314 -28 -380 -36 -81 -11 -107 -12 -320 -23 -66
-3 -154 -10 -195 -15 -67 -9 -279 -23 -352 -24 -16 0 -28 -3 -28 -8 0 -4 -19
-9 -42 -11 -52 -4 -88 26 -88 74 l0 31 20 -26 c14 -18 27 -24 43 -21 12 2 87
10 166 18 136 14 188 25 125 27 -16 0 -36 2 -44 5 -62 16 -73 16 -82 0 -6 -11
-16 -15 -29 -11 -11 4 -19 2 -19 -5 0 -6 -5 -8 -11 -5 -5 4 -9 17 -8 28 2 35
0 49 -9 43 -5 -3 -15 4 -22 15 -8 10 -22 19 -32 19 -9 0 -20 5 -23 11 -4 5
-18 14 -31 19 -16 6 -24 17 -24 32 0 13 -9 37 -20 53 l-20 30 0 -32 c0 -54
-17 -37 -29 30 -31 163 -71 265 -71 181 0 -13 -4 -24 -10 -24 -5 0 -10 25 -10
55 0 43 3 55 15 55 18 0 17 7 -17 170 -10 52 -24 121 -30 153 -7 31 -15 52
-18 46 -5 -7 -9 -5 -13 5 -4 9 -2 16 4 16 7 0 9 11 5 28 l-6 27 27 -32 c16
-17 38 -46 51 -65 12 -18 50 -70 83 -116 49 -68 63 -81 75 -71 12 9 10 16 -9
41 -64 88 -78 107 -109 157 -27 43 -45 59 -99 87 -80 40 -208 163 -257 246
-76 129 -109 301 -83 431 58 277 351 461 642 403 201 -41 383 -178 471 -356
l32 -65 116 -2 c63 -2 158 1 210 7 52 5 129 12 170 15 185 14 632 55 646 60 6
2 19 27 28 57 65 198 230 369 421 433 99 33 232 37 335 8z m-773 -105 c-3 -8
-6 -5 -6 6 -1 11 2 17 5 13 3 -3 4 -12 1 -19z m1333 -343 c0 -14 -4 -25 -10
-25 -11 0 -14 33 -3 43 11 11 13 8 13 -18z m110 -262 c0 -5 -5 -15 -10 -23 -8
-12 -10 -11 -10 8 0 12 5 22 10 22 6 0 10 -3 10 -7z m10 -78 c12 -14 11 -24
-6 -123 -7 -38 -41 -63 -50 -37 -4 9 -2 27 4 40 8 17 7 27 -3 42 -19 24 -18
53 2 75 20 22 36 23 53 3z m-3752 -24 c3 -8 -1 -12 -9 -9 -7 2 -15 10 -17 17
-3 8 1 12 9 9 7 -2 15 -10 17 -17z m3532 -86 c0 -8 -4 -15 -10 -15 -5 0 -10 7
-10 15 0 8 5 15 10 15 6 0 10 -7 10 -15z m-3740 -5 c0 -5 -2 -10 -4 -10 -3 0
-8 5 -11 10 -3 6 -1 10 4 10 6 0 11 -4 11 -10z m3610 -29 c0 -16 -24 -51 -35
-51 -12 0 -11 31 1 49 19 26 34 27 34 2z m-3450 -86 c0 -8 -2 -15 -4 -15 -2 0
-6 7 -10 15 -3 8 -1 15 4 15 6 0 10 -7 10 -15z m3790 -39 c0 -8 -4 -17 -9 -21
-12 -7 -24 12 -16 25 9 15 25 12 25 -4z m-216 -38 c-9 -31 -12 -34 -25 -21
-15 15 -4 43 16 43 12 0 15 -6 9 -22z m256 -33 c0 -20 -5 -25 -25 -25 -33 0
-35 37 -2 43 12 2 23 5 25 6 1 0 2 -10 2 -24z m-4170 -21 c0 -31 -23 -28 -28
4 -2 15 2 22 12 22 11 0 16 -9 16 -26z m3720 -28 c0 -20 -26 -40 -35 -26 -10
16 2 40 20 40 8 0 15 -6 15 -14z m-3550 -42 c0 -16 -16 -19 -25 -4 -8 13 4 32
16 25 5 -4 9 -13 9 -21z m200 -35 c0 -18 -2 -19 -15 -9 -8 7 -15 16 -15 21 0
5 7 9 15 9 9 0 15 -9 15 -21z m-180 -24 c13 -16 7 -45 -10 -45 -13 0 -50 37
-50 50 0 16 46 12 60 -5z m3650 -29 c0 -8 -4 -18 -10 -21 -5 -3 -10 3 -10 14
0 12 5 21 10 21 6 0 10 -6 10 -14z m-3460 -39 c0 -18 -2 -19 -10 -7 -13 20
-13 43 0 35 6 -3 10 -16 10 -28z m3430 13 c0 -5 -4 -10 -10 -10 -5 0 -10 5
-10 10 0 6 5 10 10 10 6 0 10 -4 10 -10z m57 -12 c-3 -8 -6 -5 -6 6 -1 11 2
17 5 13 3 -3 4 -12 1 -19z m443 8 c0 -3 -4 -8 -10 -11 -5 -3 -10 -1 -10 4 0 6
5 11 10 11 6 0 10 -2 10 -4z m-144 -33 c-10 -10 -19 5 -10 18 6 11 8 11 12 0
2 -7 1 -15 -2 -18z m-143 -9 c-4 -10 -9 -12 -15 -6 -12 12 -1 35 12 27 5 -3 6
-13 3 -21z m-43 -116 c0 -7 -4 -19 -9 -27 -11 -17 -25 3 -17 24 7 18 26 20 26
3z m-3333 -38 c11 -31 3 -40 -14 -17 -11 13 -13 47 -4 47 4 0 12 -13 18 -30z
m-627 -100 c0 -5 -5 -10 -11 -10 -5 0 -7 5 -4 10 3 6 8 10 11 10 2 0 4 -4 4
-10z m200 -20 c0 -5 -2 -10 -4 -10 -3 0 -8 5 -11 10 -3 6 -1 10 4 10 6 0 11
-4 11 -10z m-52 -29 c3 -8 -1 -12 -9 -9 -7 2 -15 10 -17 17 -3 8 1 12 9 9 7
-2 15 -10 17 -17z m466 -16 c3 -8 0 -17 -5 -21 -14 -8 -43 21 -35 35 8 13 33
4 40 -14z m3006 -34 c0 -11 -4 -23 -10 -26 -6 -4 -10 5 -10 19 0 14 5 26 10
26 6 0 10 -9 10 -19z m-3612 -30 c3 -8 -1 -12 -9 -9 -7 2 -15 10 -17 17 -3 8
1 12 9 9 7 -2 15 -10 17 -17z m317 -1 c11 -17 -5 -32 -21 -19 -8 6 -14 15 -14
20 0 12 27 11 35 -1z m405 -86 c0 -8 -4 -12 -10 -9 -5 3 -10 10 -10 16 0 5 5
9 10 9 6 0 10 -7 10 -16z m-475 -62 c-10 -11 -34 28 -28 45 5 12 9 9 20 -12 8
-15 12 -30 8 -33z m531 -24 c7 -15 6 -38 -1 -68 -11 -44 -12 -44 -24 -21 -8
15 -11 39 -6 67 7 49 17 55 31 22z m-478 -91 c2 -15 -1 -34 -7 -44 -9 -16 -10
-16 -11 5 0 13 -6 22 -15 22 -18 0 -18 5 -4 31 14 27 33 19 37 -14z m572 -47
c0 -13 -1 -13 -10 0 -5 8 -10 22 -10 30 0 13 1 13 10 0 5 -8 10 -22 10 -30z
m-170 5 c0 -8 6 -15 14 -15 19 0 28 -14 20 -34 -10 -26 -31 -18 -43 15 -14 39
-14 49 -1 49 6 0 10 -7 10 -15z m-200 -41 c0 -14 -4 -23 -10 -19 -5 3 -10 15
-10 26 0 10 5 19 10 19 6 0 10 -12 10 -26z m-266 -16 c9 -36 7 -48 -8 -48 -21
0 -38 27 -31 50 8 27 31 26 39 -2z m421 -47 c0 -55 -9 -52 -21 8 -9 44 -8 49
5 41 11 -6 16 -23 16 -49z m-235 14 c0 -26 -14 -33 -25 -15 -9 14 1 40 15 40
5 0 10 -11 10 -25z m60 9 c0 -8 -5 -12 -10 -9 -6 4 -8 11 -5 16 9 14 15 11 15
-7z m550 -10 c0 -8 -5 -12 -10 -9 -6 4 -8 11 -5 16 9 14 15 11 15 -7z m-292
-13 c3 -8 -4 -12 -19 -9 -29 4 -36 25 -7 23 12 -1 24 -7 26 -14z m2612 -346
c0 -8 -2 -15 -4 -15 -2 0 -6 7 -10 15 -3 8 -1 15 4 15 6 0 10 -7 10 -15z m590
-1745 c0 -5 -12 -10 -27 -10 -22 0 -25 2 -13 10 20 13 40 13 40 0z m-2467
-397 c6 -33 5 -35 -15 -28 -10 4 -13 15 -10 31 6 32 18 31 25 -3z m-56 -445
c-3 -8 -6 -5 -6 6 -1 11 2 17 5 13 3 -3 4 -12 1 -19z m1750 -470 c-3 -8 -6 -5
-6 6 -1 11 2 17 5 13 3 -3 4 -12 1 -19z m8 -58 c3 -5 -1 -10 -10 -10 -9 0 -13
5 -10 10 3 6 8 10 10 10 2 0 7 -4 10 -10z m-71 -176 c8 -22 -4 -40 -15 -23
-11 18 -11 39 0 39 5 0 12 -7 15 -16z m286 -33 c0 -12 -31 -43 -37 -37 -9 9 9
46 23 46 8 0 14 -4 14 -9z m-1623 -143 c-3 -8 -6 -5 -6 6 -1 11 2 17 5 13 3
-3 4 -12 1 -19z m1266 -41 c-3 -5 -10 -4 -15 1 -6 6 -7 16 -3 22 6 9 9 9 16
-1 4 -7 5 -17 2 -22z m-1188 -117 c3 -5 1 -10 -4 -10 -6 0 -11 5 -11 10 0 6 2
10 4 10 3 0 8 -4 11 -10z m-355 -136 c0 -8 -5 -12 -10 -9 -6 4 -8 11 -5 16 9
14 15 11 15 -7z m59 -86 c19 -39 19 -42 3 -54 -42 -33 -94 3 -71 49 31 59 41
60 68 5z"/>
<path d="M4450 6464 c-75 -20 -129 -54 -183 -114 -173 -193 -48 -490 206 -490
82 0 151 16 192 43 85 58 125 101 160 169 82 166 24 326 -142 388 -64 24 -153
25 -233 4z"/>
<path d="M5025 6360 c-3 -5 3 -10 14 -10 12 0 21 5 21 10 0 6 -6 10 -14 10 -8
0 -18 -4 -21 -10z"/>
<path d="M2107 6310 c-84 -22 -164 -85 -203 -162 -31 -61 -33 -156 -5 -221 74
-172 343 -278 503 -197 56 28 90 58 124 109 39 60 45 171 13 256 -30 80 -114
164 -196 195 -65 25 -177 34 -236 20z"/>
<path d="M3065 6292 c-16 -2 -35 -8 -41 -13 -9 -7 -93 -7 -129 1 -31 7 -63 -2
-68 -19 -6 -23 11 -54 25 -45 5 4 30 8 54 10 24 2 80 12 124 23 44 11 87 18
95 15 8 -4 15 -1 15 5 0 6 1 14 3 17 3 8 -38 11 -78 6z"/>
<path d="M4026 5683 c-2 -2 -52 -4 -111 -4 -59 0 -113 -3 -119 -7 -11 -7 -16
-8 -70 -11 -28 -1 -29 -2 -21 -43 14 -73 10 -141 -9 -171 -20 -30 -43 -38 -27
-9 5 10 12 51 15 92 5 74 -4 52 -17 -40 -3 -19 -7 -42 -11 -50 -3 -8 -8 -28
-10 -43 -3 -16 -14 -37 -25 -47 -12 -9 -21 -22 -21 -28 0 -5 -11 -20 -25 -33
-13 -13 -25 -28 -25 -33 0 -21 104 4 192 45 100 47 178 106 224 170 16 23 38
53 50 67 24 32 67 133 59 140 -7 7 -44 10 -49 5z"/>
<path d="M3480 5650 c-8 -5 -25 -10 -38 -10 -20 0 -22 -3 -16 -40 5 -31 3 -45
-11 -60 -37 -41 -78 -16 -72 43 3 29 1 36 -17 39 -12 2 -32 1 -46 -2 -23 -6
-25 -10 -22 -60 2 -44 1 -51 -11 -42 -9 8 -24 9 -45 2 -18 -5 -36 -9 -40 -9
-18 -2 -5 -26 16 -29 26 -4 62 -55 62 -89 0 -30 26 -53 60 -53 43 0 60 10 60
35 0 38 62 49 80 14 9 -16 17 -19 43 -14 33 7 66 39 67 64 0 21 49 81 66 81 7
0 14 7 14 15 0 20 -4 19 -69 -14 -110 -56 -165 -73 -218 -66 -88 12 -104 23
-61 42 15 6 32 6 51 -1 23 -9 39 -6 90 12 34 13 72 25 85 26 31 4 35 11 18 29
-9 9 -14 21 -12 29 16 51 16 68 -1 68 -10 0 -25 -5 -33 -10z"/>
<path d="M2878 5593 c-16 -2 -28 -6 -28 -7 0 -2 9 -31 20 -65 13 -40 35 -81
64 -115 39 -45 58 -57 138 -89 52 -20 101 -37 110 -37 9 0 20 -4 23 -10 3 -5
15 -10 26 -10 28 0 24 31 -7 55 -52 40 -83 79 -99 124 -9 25 -27 72 -38 104
l-22 57 -80 -1 c-44 -1 -92 -4 -107 -6z m242 -189 c0 -20 -7 -17 -20 6 -9 16
-8 18 5 14 8 -4 15 -12 15 -20z"/>
<path d="M4745 5229 c-4 -11 -4 -23 -1 -26 3 -4 6 1 6 10 0 10 5 17 10 17 6 0
10 5 10 10 0 18 -19 10 -25 -11z"/>
<path d="M4296 5172 c-3 -5 -3 -18 0 -30 8 -27 36 -17 32 11 -3 22 -23 34 -32
19z"/>
<path d="M2978 4903 c-9 -2 -18 -16 -20 -31 -2 -18 -9 -27 -20 -27 -10 0 -23
-6 -30 -13 -6 -6 -17 -12 -23 -12 -19 0 -64 -24 -70 -38 -5 -13 8 -12 208 10
53 5 97 13 97 15 0 3 -22 3 -50 1 -39 -4 -50 -2 -50 9 0 8 -6 13 -12 10 -7 -2
-12 -10 -10 -16 1 -6 -5 -11 -14 -11 -8 0 -13 4 -9 9 3 5 1 12 -5 16 -19 12 1
24 29 19 16 -3 31 -2 34 3 9 15 -36 60 -55 56z"/>
<path d="M3910 4893 c-41 -2 -79 -8 -85 -14 -12 -12 146 0 160 12 5 5 7 8 5 7
-3 -1 -39 -4 -80 -5z"/>
<path d="M2830 4860 c0 -5 5 -10 10 -10 6 0 10 5 10 10 0 6 -4 10 -10 10 -5 0
-10 -4 -10 -10z"/>
<path d="M3493 4852 c-21 -2 -33 -9 -33 -18 0 -15 15 -16 64 -5 23 5 26 8 15
16 -8 6 -29 9 -46 7z"/>
<path d="M4665 4640 c3 -5 8 -10 11 -10 2 0 4 5 4 10 0 6 -5 10 -11 10 -5 0
-7 -4 -4 -10z"/>
<path d="M4802 4550 c0 -14 2 -19 5 -12 2 6 2 18 0 25 -3 6 -5 1 -5 -13z"/>
<path d="M4706 4471 c-4 -7 -5 -15 -2 -18 9 -9 19 4 14 18 -4 11 -6 11 -12 0z"/>
<path d="M4185 4370 c8 -16 15 -36 15 -45 0 -8 9 -15 20 -15 24 0 27 15 5 24
-9 3 -21 19 -26 36 -6 16 -15 30 -20 30 -5 0 -3 -13 6 -30z"/>
<path d="M4405 4369 c-16 -10 -43 -26 -60 -34 l-30 -14 57 -1 c31 0 60 5 63
10 3 6 1 10 -6 10 -7 0 -6 8 5 25 19 29 12 31 -29 4z"/>
<path d="M4802 4335 c0 -16 2 -22 5 -12 2 9 2 23 0 30 -3 6 -5 -1 -5 -18z"/>
<path d="M4680 4291 c0 -5 10 -11 23 -13 12 -2 22 -10 22 -18 0 -11 -11 -15
-48 -14 -53 2 -69 10 -47 24 23 14 7 20 -26 11 -18 -6 -22 -10 -10 -10 15 -1
16 -4 7 -15 -15 -17 1 -30 27 -22 9 3 24 1 32 -4 12 -8 11 -10 -6 -10 -11 0
-24 -3 -27 -7 -12 -12 -67 -8 -67 5 0 6 5 12 10 12 12 0 13 10 1 29 -12 19
-76 -5 -90 -33 -10 -20 -10 -20 -8 -1 1 11 -2 22 -8 25 -5 3 -11 -10 -13 -27
-3 -34 -16 -43 -26 -20 -5 10 -7 10 -12 0 -3 -7 -18 -12 -32 -12 -24 2 -24 2
-4 6 40 8 25 31 -23 35 -44 3 -46 2 -43 -22 3 -26 -27 -51 -61 -49 -13 0 -12
2 3 8 19 7 19 8 1 15 -17 6 -34 -7 -35 -26 0 -16 46 -18 162 -9 68 6 163 13
212 16 49 3 96 9 105 13 9 4 35 7 58 6 41 -1 42 0 48 38 4 22 4 42 1 45 -3 4
-6 -1 -6 -9 0 -17 -27 -44 -36 -35 -3 3 -1 14 5 25 15 29 -10 62 -33 43 -11
-9 -16 -10 -16 -2 0 6 -9 11 -20 11 -11 0 -20 -4 -20 -9z m-153 -97 c-3 -3
-12 -4 -19 -1 -8 3 -5 6 6 6 11 1 17 -2 13 -5z m-149 -21 c-10 -2 -26 -2 -35
0 -10 3 -2 5 17 5 19 0 27 -2 18 -5z"/>
<path d="M4410 4235 c0 -8 5 -15 10 -15 6 0 10 7 10 15 0 8 -4 15 -10 15 -5 0
-10 -7 -10 -15z"/>
<path d="M2880 4230 c0 -5 5 -10 10 -10 6 0 10 5 10 10 0 6 -4 10 -10 10 -5 0
-10 -4 -10 -10z"/>
<path d="M4271 4214 c0 -11 3 -14 6 -6 3 7 2 16 -1 19 -3 4 -6 -2 -5 -13z"/>
<path d="M2920 4205 c0 -8 8 -15 18 -16 10 0 12 -3 5 -6 -7 -2 -13 -14 -13
-26 1 -21 2 -21 25 6 14 15 25 36 25 45 0 13 -2 14 -9 3 -6 -9 -11 -10 -15 -2
-10 16 -36 13 -36 -4z"/>
<path d="M2640 3860 c-12 -8 -10 -10 8 -10 13 0 20 4 17 10 -7 12 -6 12 -25 0z"/>
<path d="M2680 3559 c0 -11 9 -32 20 -46 11 -14 20 -41 20 -59 0 -35 -16 -46
-27 -18 -5 13 -7 13 -14 2 -14 -21 -10 -65 6 -72 8 -3 15 -10 15 -15 0 -6 -7
-8 -15 -5 -12 5 -15 -6 -15 -63 0 -62 3 -73 28 -101 l28 -32 22 30 c27 36 27
36 2 62 -10 12 -17 25 -14 29 3 5 0 18 -6 30 -10 17 -8 21 10 26 19 5 22 11
17 44 -3 20 0 42 5 47 16 16 0 76 -32 121 -33 45 -50 52 -50 20z"/>
<path d="M2200 3490 c0 -5 5 -10 10 -10 6 0 10 5 10 10 0 6 -4 10 -10 10 -5 0
-10 -4 -10 -10z"/>
<path d="M4466 3230 c-16 -79 -26 -181 -21 -206 14 -62 17 -67 25 -54 5 7 6
47 2 89 l-5 76 24 -16 c13 -9 46 -52 72 -95 26 -44 64 -97 83 -119 l36 -40
-22 38 c-12 21 -31 57 -42 79 -11 22 -36 63 -55 91 -19 27 -48 79 -63 116 -24
56 -29 62 -34 41z"/>
<path d="M2809 1915 c-8 -13 -4 -146 6 -208 7 -44 26 -69 42 -54 3 4 -4 48
-15 99 -12 51 -23 111 -24 133 -2 22 -6 36 -9 30z"/>
<path d="M2870 1841 c0 -5 7 -11 15 -15 8 -3 15 -1 15 3 0 5 -7 11 -15 15 -8
3 -15 1 -15 -3z"/>
<path d="M4265 1600 c-11 -4 -36 -22 -55 -40 -79 -74 -99 -84 -164 -86 -33 -1
-64 3 -68 9 -8 13 -38 -9 -38 -28 0 -6 -15 -20 -34 -30 -44 -24 -38 -34 14
-25 47 9 60 18 41 29 -8 6 -9 11 -3 15 6 3 13 2 17 -4 3 -5 24 -10 45 -10 21
0 42 -4 45 -10 16 -26 67 7 110 73 22 34 92 84 125 89 24 3 24 4 5 15 -11 6
-29 7 -40 3z"/>
<path d="M3995 1530 c-3 -5 -1 -10 4 -10 6 0 11 5 11 10 0 6 -2 10 -4 10 -3 0
-8 -4 -11 -10z"/>
<path d="M2840 1510 c31 -24 54 -26 46 -4 -3 9 -6 18 -6 20 0 2 -15 4 -32 4
l-33 0 25 -20z"/>
<path d="M2920 1485 c7 -8 17 -15 22 -15 6 0 5 7 -2 15 -7 8 -17 15 -22 15 -6
0 -5 -7 2 -15z"/>
<path d="M2906 1377 c3 -10 9 -15 12 -12 3 3 0 11 -7 18 -10 9 -11 8 -5 -6z"/>
<path d="M4230 1375 c-7 -9 -8 -15 -2 -15 5 0 12 7 16 15 3 8 4 15 2 15 -2 0
-9 -7 -16 -15z"/>
<path d="M2906 1292 c-3 -6 -1 -14 5 -17 15 -10 25 3 12 16 -7 7 -13 7 -17 1z"/>
<path d="M4646 1204 c-5 -14 9 -54 19 -54 3 0 5 16 5 35 0 36 -13 47 -24 19z"/>
</g>
</svg>
